# xmcd
#
# Track frame offsets:
#	150
#	14655
#	26080
#	52345
#	63695
#	81980
#	105765
#	119325
#	142307
#	151807
#	170237
#	189297
#	210962
#
# Disc length: 3348 seconds
#
# Revision: 0
# Processed by: cddbd v1.5.1PL0 Copyright (c) Steve Scherf et al.
# Submitted via: dBpowerAMP V4.0
#
DISCID=ba0d120d
DTITLE=(HED) PE - (HED) PE
DYEAR=1900
DGENRE=Rock
TTITLE0=P.O.S.
TTITLE1=Ground
TTITLE2=Serpent Boy
TTITLE3=Firsty
TTITLE4=Tired Of Sleep (TOS)
TTITLE5=Darky
TTITLE6=Schpamb
TTITLE7=Ken 2012
TTITLE8=Circus
TTITLE9=33
TTITLE10=Hill
TTITLE11=I F O
TTITLE12=Bitches
EXTD=
EXTT0=
EXTT1=
EXTT2=
EXTT3=
EXTT4=
EXTT5=
EXTT6=
EXTT7=
EXTT8=
EXTT9=
EXTT10=
EXTT11=
EXTT12=
PLAYORDER=
